<svg width="1600" height="980" viewBox="0 0 1600 980" fill="none" xmlns="http://www.w3.org/2000/svg">
  <rect width="1600" height="980" fill="#CDA175"/>
  <rect width="1600" height="980" fill="url(#bg)"/>
  <rect x="0" y="0" width="1600" height="200" fill="#E9D6C4" fill-opacity="0.35"/>
  <rect x="0" y="160" width="1600" height="820" fill="url(#warm)"/>

  <g opacity="0.95">
    <rect x="920" y="500" width="530" height="210" rx="28" fill="#C88C4C"/>
    <rect x="930" y="520" width="510" height="110" rx="24" fill="#E2AA68"/>
    <rect x="1010" y="620" width="24" height="170" rx="10" fill="#84572F"/>
    <rect x="1290" y="620" width="24" height="170" rx="10" fill="#84572F"/>
  </g>

  <g opacity="0.94">
    <rect x="500" y="575" width="610" height="230" rx="32" fill="#C98E50"/>
    <rect x="520" y="600" width="570" height="125" rx="26" fill="#E7B072"/>
    <rect x="610" y="720" width="30" height="190" rx="12" fill="#84572F"/>
    <rect x="950" y="720" width="30" height="190" rx="12" fill="#84572F"/>
  </g>

  <g opacity="0.78">
    <rect x="1130" y="300" width="320" height="125" rx="22" fill="#B7783D"/>
    <rect x="1146" y="317" width="288" height="74" rx="18" fill="#D89B5B"/>
    <rect x="1188" y="388" width="18" height="110" rx="8" fill="#7B4E2A"/>
    <rect x="1365" y="388" width="18" height="110" rx="8" fill="#7B4E2A"/>
  </g>

  <g opacity="0.72">
    <rect x="250" y="320" width="290" height="118" rx="20" fill="#B7783D"/>
    <rect x="266" y="337" width="258" height="70" rx="16" fill="#D89B5B"/>
    <rect x="308" y="405" width="16" height="102" rx="8" fill="#7B4E2A"/>
    <rect x="470" y="405" width="16" height="102" rx="8" fill="#7B4E2A"/>
  </g>

  <g>
    <ellipse cx="710" cy="340" rx="90" ry="115" fill="#E6C8AF"/>
    <path d="M628 330C628 265 674 220 731 220C781 220 822 260 822 318V436H628V330Z" fill="#6C4E37"/>
    <path d="M610 470C610 397 658 354 722 354C786 354 835 401 835 470V690H610V470Z" fill="#2E3C59"/>
    <path d="M685 420L735 470L791 420" stroke="#F7EFE8" stroke-width="16" stroke-linecap="round" stroke-linejoin="round"/>
    <path d="M654 705C691 655 777 649 820 705" stroke="#2A2A2A" stroke-opacity="0.12" stroke-width="18" stroke-linecap="round"/>
    <path d="M735 476C770 510 789 561 782 623" stroke="#E9D7C9" stroke-width="18" stroke-linecap="round"/>
    <rect x="706" y="610" width="145" height="22" rx="11" transform="rotate(11 706 610)" fill="#F7F8FB"/>
    <rect x="798" y="628" width="86" height="8" rx="4" transform="rotate(11 798 628)" fill="#2C5B93"/>
    <path d="M804 606L852 708" stroke="#294D7A" stroke-width="8" stroke-linecap="round"/>
  </g>

  <g opacity="0.92">
    <ellipse cx="1120" cy="330" rx="58" ry="72" fill="#DDB89A"/>
    <path d="M1068 325C1068 281 1100 247 1138 247C1174 247 1202 278 1202 318V416H1068V325Z" fill="#3C2D22"/>
    <path d="M1042 455C1042 409 1075 378 1124 378C1173 378 1207 408 1207 455V625H1042V455Z" fill="#37465F"/>
  </g>

  <g opacity="0.9">
    <ellipse cx="1346" cy="278" rx="52" ry="66" fill="#E4C2A5"/>
    <path d="M1299 276C1299 234 1327 203 1360 203C1394 203 1422 232 1422 272V360H1299V276Z" fill="#223148"/>
    <path d="M1270 400C1270 359 1301 332 1348 332C1390 332 1424 359 1424 400V600H1270V400Z" fill="#203B6A"/>
  </g>

  <g opacity="0.7">
    <ellipse cx="373" cy="300" rx="54" ry="66" fill="#DAB79A"/>
    <path d="M325 294C325 253 354 223 389 223C421 223 451 252 451 291V380H325V294Z" fill="#2A2735"/>
    <path d="M302 410C302 370 333 343 378 343C420 343 453 369 453 410V575H302V410Z" fill="#2C4A79"/>
  </g>

  <rect x="0" y="0" width="1600" height="980" fill="url(#vignette)"/>

  <defs>
    <linearGradient id="bg" x1="216" y1="104" x2="1375" y2="881" gradientUnits="userSpaceOnUse">
      <stop stop-color="#D2B193"/>
      <stop offset="0.42" stop-color="#B67A45"/>
      <stop offset="1" stop-color="#415A7C"/>
    </linearGradient>
    <linearGradient id="warm" x1="800" y1="160" x2="800" y2="980" gradientUnits="userSpaceOnUse">
      <stop stop-color="#F5E2D0" stop-opacity="0.18"/>
      <stop offset="1" stop-color="#9A673C" stop-opacity="0.22"/>
    </linearGradient>
    <radialGradient id="vignette" cx="0" cy="0" r="1" gradientUnits="userSpaceOnUse" gradientTransform="translate(800 430) rotate(90) scale(700 1150)">
      <stop offset="0.6" stop-color="#000000" stop-opacity="0"/>
      <stop offset="1" stop-color="#000000" stop-opacity="0.22"/>
    </radialGradient>
  </defs>
</svg>
